<svg xmlns="http://www.w3.org/2000/svg" xmlns:xlink="http://www.w3.org/1999/xlink" viewBox="0 0 51.27 3.29"><defs><style>.cls-1{isolation:isolate;}.cls-2{fill:url(#Degradado_sin_nombre_7);}.cls-3{fill:url(#Degradado_sin_nombre_7-2);}.cls-4{fill:url(#Degradado_sin_nombre_7-3);}.cls-5{fill:url(#Degradado_sin_nombre_7-4);}.cls-6{fill:url(#Degradado_sin_nombre_7-5);}.cls-7{fill:url(#Degradado_sin_nombre_7-6);}.cls-8{fill:url(#Degradado_sin_nombre_7-7);}.cls-9{fill:url(#Degradado_sin_nombre_7-8);}.cls-10{fill:url(#Degradado_sin_nombre_7-9);}.cls-11{fill:url(#Degradado_sin_nombre_7-10);}.cls-12{fill:url(#Degradado_sin_nombre_7-11);}.cls-13{fill:url(#Degradado_sin_nombre_7-12);}.cls-14{fill:url(#Degradado_sin_nombre_7-13);}.cls-15{fill:url(#Degradado_sin_nombre_7-14);}.cls-16{fill:url(#Degradado_sin_nombre_7-15);}.cls-17{fill:#c21718;}.cls-18{fill:#fff;}.cls-19{fill:#3e77bc;}.cls-20{mix-blend-mode:luminosity;opacity:0.62;}.cls-21{fill:url(#Degradado_sin_nombre_7-16);}.cls-22{fill:url(#Degradado_sin_nombre_7-17);}.cls-23{fill:url(#Degradado_sin_nombre_7-18);}</style><linearGradient id="Degradado_sin_nombre_7" x1="1.74" y1="0.3" x2="1.74" y2="4.8" gradientUnits="userSpaceOnUse"><stop offset="0" stop-color="#ebebeb"/><stop offset="1" stop-color="#858585"/></linearGradient><linearGradient id="Degradado_sin_nombre_7-2" x1="5.56" y1="0.3" x2="5.56" y2="4.8" xlink:href="#Degradado_sin_nombre_7"/><linearGradient id="Degradado_sin_nombre_7-3" x1="8.87" y1="0.3" x2="8.87" y2="4.8" xlink:href="#Degradado_sin_nombre_7"/><linearGradient id="Degradado_sin_nombre_7-4" x1="11.08" y1="0.3" x2="11.08" y2="4.8" xlink:href="#Degradado_sin_nombre_7"/><linearGradient id="Degradado_sin_nombre_7-5" x1="12.48" y1="0.3" x2="12.48" y2="4.8" xlink:href="#Degradado_sin_nombre_7"/><linearGradient id="Degradado_sin_nombre_7-6" x1="14.18" y1="0.3" x2="14.18" y2="4.8" xlink:href="#Degradado_sin_nombre_7"/><linearGradient id="Degradado_sin_nombre_7-7" x1="16.48" y1="0.3" x2="16.48" y2="4.8" xlink:href="#Degradado_sin_nombre_7"/><linearGradient id="Degradado_sin_nombre_7-8" x1="19.27" y1="0.3" x2="19.27" y2="4.8" xlink:href="#Degradado_sin_nombre_7"/><linearGradient id="Degradado_sin_nombre_7-9" x1="23.3" y1="0.3" x2="23.3" y2="4.8" xlink:href="#Degradado_sin_nombre_7"/><linearGradient id="Degradado_sin_nombre_7-10" x1="26.03" y1="0.3" x2="26.03" y2="4.8" xlink:href="#Degradado_sin_nombre_7"/><linearGradient id="Degradado_sin_nombre_7-11" x1="28.07" y1="0.3" x2="28.07" y2="4.8" xlink:href="#Degradado_sin_nombre_7"/><linearGradient id="Degradado_sin_nombre_7-12" x1="29.54" y1="0.3" x2="29.54" y2="4.8" xlink:href="#Degradado_sin_nombre_7"/><linearGradient id="Degradado_sin_nombre_7-13" x1="30.95" y1="0.3" x2="30.95" y2="4.8" xlink:href="#Degradado_sin_nombre_7"/><linearGradient id="Degradado_sin_nombre_7-14" x1="32.94" y1="0.3" x2="32.94" y2="4.8" xlink:href="#Degradado_sin_nombre_7"/><linearGradient id="Degradado_sin_nombre_7-15" x1="35.76" y1="0.3" x2="35.76" y2="4.8" xlink:href="#Degradado_sin_nombre_7"/><linearGradient id="Degradado_sin_nombre_7-16" x1="41.55" y1="0.12" x2="41.5" y2="1.68" xlink:href="#Degradado_sin_nombre_7"/><linearGradient id="Degradado_sin_nombre_7-17" x1="45.73" y1="0.27" x2="45.68" y2="1.83" xlink:href="#Degradado_sin_nombre_7"/><linearGradient id="Degradado_sin_nombre_7-18" x1="49.9" y1="0.41" x2="49.85" y2="1.97" xlink:href="#Degradado_sin_nombre_7"/></defs><g class="cls-1"><g id="Capa_2" data-name="Capa 2"><g id="Capa_1-2" data-name="Capa 1"><path class="cls-2" d="M0,3.05c.15-.27.33-.61.54-1L1.12.93C1.3.58,1.45.29,1.57,0h.82l.31.9.69,1.87.09.24H2.77c0-.13-.09-.31-.17-.53L2.41,2H1.24c-.17.35-.34.7-.5,1.07H0ZM1.44,1.52h.85L1.94.5,1.76.87Z"/><path class="cls-3" d="M3.77,3.05c0-.25,0-.63.06-1.12s0-.88,0-1.13h.59v.36A1.56,1.56,0,0,1,4.57,1,.74.74,0,0,1,4.73.87.67.67,0,0,1,4.94.78a1.15,1.15,0,0,1,.26,0l.19,0,.17,0A.57.57,0,0,1,5.69.9a.28.28,0,0,1,.09.1.59.59,0,0,1,.08.16L6,1,6.06.92,6.21.83A1.06,1.06,0,0,1,6.4.77l.22,0A1,1,0,0,1,7,.81a.57.57,0,0,1,.27.2.6.6,0,0,1,.1.34c0,.07,0,.17,0,.31s0,.36,0,.67,0,.55,0,.72H6.64c0-.19,0-.39,0-.6l0-.5c0-.13,0-.24,0-.33a.54.54,0,0,0,0-.24.28.28,0,0,0-.13-.11.47.47,0,0,0-.17,0,.58.58,0,0,0-.18,0A.79.79,0,0,0,6,1.39a1,1,0,0,0-.11.2,1.66,1.66,0,0,0,0,.31c0,.14,0,.32,0,.53v.62H5.21c0-.12,0-.35,0-.7s0-.58,0-.71a.7.7,0,0,0,0-.16.32.32,0,0,0-.17-.22.33.33,0,0,0-.15,0,.4.4,0,0,0-.27.11.47.47,0,0,0-.17.27,3,3,0,0,0-.08.66c0,.33,0,.59,0,.78H3.77Z"/><path class="cls-4" d="M9.81,2.55c0,.08-.05.24-.09.46a2.6,2.6,0,0,1-.4.07L9,3.1A2,2,0,0,1,8.48,3a.81.81,0,0,1-.4-.21.89.89,0,0,1-.26-.37A1.5,1.5,0,0,1,7.74,2a1.6,1.6,0,0,1,.09-.53,1.22,1.22,0,0,1,.27-.41A.86.86,0,0,1,8.49.82a1.52,1.52,0,0,1,.88,0A.83.83,0,0,1,9.72,1a1,1,0,0,1,.21.31,1,1,0,0,1,.07.4,1.49,1.49,0,0,1,0,.21H8.36V2a.66.66,0,0,0,.05.28.43.43,0,0,0,.15.2.58.58,0,0,0,.23.13.82.82,0,0,0,.26,0l.33,0A3.91,3.91,0,0,0,9.81,2.55ZM8.38,1.66h1V1.5l0-.11a.35.35,0,0,0-.07-.12.24.24,0,0,0-.09-.08L9.1,1.14,9,1.12a.57.57,0,0,0-.18,0l-.16.08a.49.49,0,0,0-.12.13.83.83,0,0,0-.07.13A1.08,1.08,0,0,0,8.38,1.66Z"/><path class="cls-5" d="M10.33,3.05l.07-1V1.39c0-.12,0-.25,0-.38s0-.09,0-.21H11v.31l.15-.17a.41.41,0,0,1,.13-.1l.17-.07.18,0,.18,0c0,.14,0,.31,0,.52l-.23,0a.53.53,0,0,0-.23,0,.42.42,0,0,0-.18.11,1,1,0,0,0-.13.2,1,1,0,0,0-.06.24q0,.1,0,.39c0,.19,0,.37,0,.55s0,.15,0,.26h-.64Z"/><path class="cls-6" d="M12.09,3.05c0-.22,0-.41.05-.56s0-.5,0-.81,0-.6,0-.88h.64c0,.26,0,.5-.05.74s0,.49,0,.79,0,.54,0,.72h-.67ZM12.21.42c0-.15,0-.27,0-.35V0h.65a.53.53,0,0,0,0,.13V.42h-.64Z"/><path class="cls-7" d="M15.05,2.54a1.62,1.62,0,0,1,0,.2c0,.08,0,.17,0,.29a2.62,2.62,0,0,1-.62.07,1.87,1.87,0,0,1-.34,0A.84.84,0,0,1,13.7,3a.88.88,0,0,1-.25-.22,1,1,0,0,1-.16-.34A1.4,1.4,0,0,1,13.23,2a1.6,1.6,0,0,1,.09-.53A1.11,1.11,0,0,1,13.58,1,1,1,0,0,1,14,.81a1.68,1.68,0,0,1,.47-.06l.29,0,.36.06,0,.49a1.63,1.63,0,0,0-.57-.11.66.66,0,0,0-.28.05.46.46,0,0,0-.23.16.68.68,0,0,0-.14.25,1.35,1.35,0,0,0,0,.29.8.8,0,0,0,.07.36.4.4,0,0,0,.22.24.74.74,0,0,0,.36.09l.24,0A1.67,1.67,0,0,0,15.05,2.54Z"/><path class="cls-8" d="M15.67,1.3a1.85,1.85,0,0,0,0-.23,1.52,1.52,0,0,0,0-.19,4.77,4.77,0,0,1,.53-.1l.44,0a1.63,1.63,0,0,1,.45.06.6.6,0,0,1,.32.18.52.52,0,0,1,.11.35c0,.09,0,.3,0,.64s0,.7,0,1.07h-.62c0-.18,0-.39.05-.62l0-.55L16.84,2l-.1,0-.2.06-.22.06a.52.52,0,0,0-.15.07.31.31,0,0,0-.11.08.18.18,0,0,0-.07.09.22.22,0,0,0,0,.11.28.28,0,0,0,0,.16.28.28,0,0,0,.14.1l.19,0h.15l.21-.05a3,3,0,0,0-.11.37l-.25,0h-.17A1.2,1.2,0,0,1,15.72,3a.47.47,0,0,1-.26-.24.68.68,0,0,1-.09-.33.43.43,0,0,1,0-.19.56.56,0,0,1,.09-.17A1.29,1.29,0,0,1,15.67,2,1.58,1.58,0,0,1,16,1.81a4.62,4.62,0,0,1,.51-.13l.18-.05a.46.46,0,0,0,.14,0,.15.15,0,0,0,.09-.06.16.16,0,0,0,.06-.08.13.13,0,0,0,0-.08.25.25,0,0,0-.05-.15.28.28,0,0,0-.15-.08.64.64,0,0,0-.2,0A2.45,2.45,0,0,0,15.67,1.3Z"/><path class="cls-9" d="M18.05,3.05c0-.34.06-.71.08-1.13s0-.79,0-1.12h.63l0,.38A.74.74,0,0,1,18.9,1L19,.91A.91.91,0,0,1,19.2.82l.21,0,.24,0A1.5,1.5,0,0,1,20,.8a.63.63,0,0,1,.29.16.54.54,0,0,1,.15.23,1.27,1.27,0,0,1,0,.28v.19l0,1c0,.13,0,.28,0,.43h-.64c0-.13,0-.35.05-.67s0-.53,0-.63a.56.56,0,0,0-.05-.28.35.35,0,0,0-.17-.17.65.65,0,0,0-.5,0,.48.48,0,0,0-.2.15.62.62,0,0,0-.13.24,2.26,2.26,0,0,0-.08.51c0,.21,0,.49,0,.85h-.65Z"/><path class="cls-10" d="M22.13,3.05l.06-.85,0-1,0-.88V0h2.19l0,.47H22.93l0,.78h1.33q0,.19,0,.48h-.68l-.65,0,0,.82H24l.32,0c0,.18,0,.34,0,.49H22.13Z"/><path class="cls-11" d="M27.13,3.05h-.59l0-.39a2.3,2.3,0,0,1-.16.2.81.81,0,0,1-.18.12.73.73,0,0,1-.22.09,1,1,0,0,1-.64,0A.89.89,0,0,1,25,2.81a1,1,0,0,1-.19-.34,1.34,1.34,0,0,1-.06-.4,1.55,1.55,0,0,1,.11-.56,1,1,0,0,1,.3-.45,1.18,1.18,0,0,1,.44-.24,1.72,1.72,0,0,1,.52-.07,2.57,2.57,0,0,1,.45,0c0-.19,0-.39,0-.6V0h.64c0,.37-.07.88-.09,1.52S27.13,2.7,27.13,3.05Zm-.54-1.84a1.25,1.25,0,0,0-.32-.05,1.14,1.14,0,0,0-.33.05.72.72,0,0,0-.29.17.75.75,0,0,0-.18.3A.91.91,0,0,0,25.4,2a.78.78,0,0,0,.06.31.41.41,0,0,0,.19.22.48.48,0,0,0,.29.09.56.56,0,0,0,.4-.18,1,1,0,0,0,.14-.23,2,2,0,0,0,.08-.38C26.57,1.75,26.58,1.53,26.59,1.21Z"/><path class="cls-12" d="M27.68,3.05c0-.22,0-.41,0-.56s0-.5,0-.81,0-.6,0-.88h.64c0,.26,0,.5-.05.74s0,.49,0,.79,0,.54,0,.72h-.67ZM27.8.42c0-.15,0-.27,0-.35V0h.64a.62.62,0,0,1,0,.13V.42H27.8Z"/><path class="cls-13" d="M30.26,2.59a4.5,4.5,0,0,0-.08.45l-.3,0h-.19a1.39,1.39,0,0,1-.3,0A.53.53,0,0,1,29.18,3a.34.34,0,0,1-.11-.18.78.78,0,0,1,0-.22V2.48s0-.13,0-.31l.05-.92h-.32c0-.09,0-.23,0-.42h.33c0-.09,0-.23,0-.44l.26,0,.32-.07a5.43,5.43,0,0,0,0,.56h.56c0,.19,0,.34,0,.42h-.56c0,.6-.05,1-.05,1a.58.58,0,0,0,0,.21.18.18,0,0,0,.1.11.32.32,0,0,0,.14,0h.12Z"/><path class="cls-14" d="M30.56,3.05c0-.22,0-.41.05-.56s0-.5,0-.81,0-.6,0-.88h.64c0,.26,0,.5,0,.74s0,.49,0,.79,0,.54,0,.72h-.67ZM30.68.42c0-.15,0-.27,0-.35V0h.65a.53.53,0,0,0,0,.13V.42h-.64Z"/><path class="cls-15" d="M33,.75a1.57,1.57,0,0,1,.49.08,1,1,0,0,1,.4.22,1.08,1.08,0,0,1,.24.37,1.33,1.33,0,0,1,.08.45,1.28,1.28,0,0,1-.09.48,1.11,1.11,0,0,1-.24.41,1.15,1.15,0,0,1-.41.26,1.77,1.77,0,0,1-.52.08A1.36,1.36,0,0,1,32.43,3,1.07,1.07,0,0,1,32,2.8a1.15,1.15,0,0,1-.25-.37A1.22,1.22,0,0,1,31.7,2a1.39,1.39,0,0,1,.08-.46,1.1,1.1,0,0,1,.24-.4,1.11,1.11,0,0,1,.42-.26A1.39,1.39,0,0,1,33,.75Zm0,.46a.67.67,0,0,0-.34.09.53.53,0,0,0-.22.28,1.06,1.06,0,0,0-.08.4.9.9,0,0,0,.06.34.6.6,0,0,0,.2.25.58.58,0,0,0,.33.09.57.57,0,0,0,.34-.1.53.53,0,0,0,.22-.28,1.07,1.07,0,0,0,.07-.41.88.88,0,0,0-.06-.33.45.45,0,0,0-.19-.24A.58.58,0,0,0,33,1.21Z"/><path class="cls-16" d="M34.54,3.05c0-.34.06-.71.09-1.13s0-.79,0-1.12h.63l0,.38L35.39,1l.13-.11A1,1,0,0,1,35.7.82l.2,0,.24,0a1.5,1.5,0,0,1,.37.05A.63.63,0,0,1,36.8,1a.46.46,0,0,1,.15.23,1.26,1.26,0,0,1,0,.28s0,.1,0,.19l0,1c0,.13,0,.28,0,.43h-.63c0-.13,0-.35,0-.67s0-.53,0-.63a.55.55,0,0,0-.06-.28.31.31,0,0,0-.17-.17.65.65,0,0,0-.5,0,.45.45,0,0,0-.19.15.63.63,0,0,0-.14.24,2.26,2.26,0,0,0-.08.51c0,.21,0,.49,0,.85h-.65Z"/><polygon class="cls-17" points="41.52 0.08 41.84 1.09 42.91 1.09 42.05 1.72 42.38 2.73 41.52 2.11 40.66 2.73 40.98 1.72 40.12 1.09 41.19 1.09 41.52 0.08"/><polygon class="cls-18" points="45.7 0.08 46.1 1.31 47.38 1.31 46.34 2.06 46.74 3.29 45.7 2.53 44.66 3.29 45.05 2.06 44.02 1.31 45.3 1.31 45.7 0.08"/><polygon class="cls-19" points="49.88 0.08 50.21 1.09 51.27 1.09 50.41 1.72 50.74 2.73 49.88 2.11 49.02 2.73 49.35 1.72 48.49 1.09 49.55 1.09 49.88 0.08"/><g class="cls-20"><polygon class="cls-21" points="41.52 0.08 41.84 1.09 42.91 1.09 42.05 1.72 42.38 2.73 41.52 2.11 40.66 2.73 40.98 1.72 40.12 1.09 41.19 1.09 41.52 0.08"/><polygon class="cls-22" points="45.7 0.08 46.1 1.31 47.38 1.31 46.34 2.06 46.74 3.29 45.7 2.53 44.66 3.29 45.05 2.06 44.02 1.31 45.3 1.31 45.7 0.08"/><polygon class="cls-23" points="49.88 0.08 50.21 1.09 51.27 1.09 50.41 1.72 50.74 2.73 49.88 2.11 49.02 2.73 49.35 1.72 48.49 1.09 49.55 1.09 49.88 0.08"/></g></g></g></g></svg>