<svg xmlns="http://www.w3.org/2000/svg" xmlns:xlink="http://www.w3.org/1999/xlink" viewBox="0 0 80.59 15.95"><defs><style>.cls-1{fill:#fff;}.cls-1,.cls-28,.cls-29,.cls-30,.cls-32,.cls-34{fill-rule:evenodd;}.cls-2{fill:url(#linear-gradient);}.cls-3{fill:url(#linear-gradient-2);}.cls-4{fill:url(#linear-gradient-3);}.cls-5{fill:url(#linear-gradient-4);}.cls-6{fill:url(#linear-gradient-5);}.cls-7{fill:url(#linear-gradient-6);}.cls-8{fill:url(#linear-gradient-7);}.cls-9{fill:url(#linear-gradient-10);}.cls-10{fill:url(#linear-gradient-11);}.cls-11{fill:url(#linear-gradient-12);}.cls-12{fill:url(#linear-gradient-13);}.cls-13{fill:url(#linear-gradient-14);}.cls-14{fill:url(#linear-gradient-15);}.cls-15{fill:url(#linear-gradient-16);}.cls-16{fill:url(#linear-gradient-17);}.cls-17{fill:url(#linear-gradient-18);}.cls-18{fill:url(#linear-gradient-19);}.cls-19{fill:url(#linear-gradient-20);}.cls-20{fill:url(#linear-gradient-21);}.cls-21{fill:url(#linear-gradient-22);}.cls-22{fill:url(#linear-gradient-23);}.cls-23{fill:url(#linear-gradient-24);}.cls-24{fill:url(#linear-gradient-25);}.cls-25{fill:url(#linear-gradient-26);}.cls-26{fill:url(#linear-gradient-27);}.cls-27{fill:url(#linear-gradient-28);}.cls-28,.cls-29{isolation:isolate;opacity:0.2;}.cls-28{fill:url(#linear-gradient-29);}.cls-29{fill:url(#linear-gradient-30);}.cls-30{fill:url(#linear-gradient-31);}.cls-31{mask:url(#mask);}.cls-32{fill:url(#linear-gradient-32);}.cls-33{mask:url(#mask-2);}.cls-34{fill:url(#linear-gradient-33);}</style><linearGradient id="linear-gradient" x1="4.83" y1="-0.37" x2="4.83" y2="8.29" gradientUnits="userSpaceOnUse"><stop offset="0" stop-color="#f5f5f5"/><stop offset="1" stop-color="#858585"/></linearGradient><linearGradient id="linear-gradient-2" x1="4" y1="-0.37" x2="4" y2="8.29" xlink:href="#linear-gradient"/><linearGradient id="linear-gradient-3" x1="54.76" y1="-0.42" x2="54.76" y2="7.28" xlink:href="#linear-gradient"/><linearGradient id="linear-gradient-4" x1="29.28" y1="-0.83" x2="29.28" y2="5.16" xlink:href="#linear-gradient"/><linearGradient id="linear-gradient-5" x1="29.28" y1="-0.83" x2="29.28" y2="5.16" xlink:href="#linear-gradient"/><linearGradient id="linear-gradient-6" x1="75.96" y1="-0.9" x2="75.96" y2="5.05" xlink:href="#linear-gradient"/><linearGradient id="linear-gradient-7" x1="79.15" y1="-0.9" x2="79.15" y2="5.05" xlink:href="#linear-gradient"/><linearGradient id="linear-gradient-10" x1="69.04" y1="9.25" x2="69.04" y2="16.54" xlink:href="#linear-gradient"/><linearGradient id="linear-gradient-11" x1="70.83" y1="9.25" x2="70.83" y2="16.54" xlink:href="#linear-gradient"/><linearGradient id="linear-gradient-12" x1="68.1" y1="9.25" x2="68.1" y2="16.54" xlink:href="#linear-gradient"/><linearGradient id="linear-gradient-13" x1="68.91" y1="9.25" x2="68.91" y2="16.54" xlink:href="#linear-gradient"/><linearGradient id="linear-gradient-14" x1="67.29" y1="9.25" x2="67.29" y2="16.54" xlink:href="#linear-gradient"/><linearGradient id="linear-gradient-15" x1="70.79" y1="9.25" x2="70.79" y2="16.54" xlink:href="#linear-gradient"/><linearGradient id="linear-gradient-16" x1="70.79" y1="9.25" x2="70.79" y2="16.54" xlink:href="#linear-gradient"/><linearGradient id="linear-gradient-17" x1="70.79" y1="9.25" x2="70.79" y2="16.54" xlink:href="#linear-gradient"/><linearGradient id="linear-gradient-18" x1="44.62" y1="10.5" x2="44.81" y2="14.19" xlink:href="#linear-gradient"/><linearGradient id="linear-gradient-19" x1="36.76" y1="10.91" x2="36.95" y2="14.6" xlink:href="#linear-gradient"/><linearGradient id="linear-gradient-20" x1="46.52" y1="10.4" x2="46.71" y2="14.1" xlink:href="#linear-gradient"/><linearGradient id="linear-gradient-21" x1="42.57" y1="10.61" x2="42.76" y2="14.3" xlink:href="#linear-gradient"/><linearGradient id="linear-gradient-22" x1="50" y1="10.22" x2="50.19" y2="13.92" xlink:href="#linear-gradient"/><linearGradient id="linear-gradient-23" x1="38.39" y1="10.82" x2="38.58" y2="14.51" xlink:href="#linear-gradient"/><linearGradient id="linear-gradient-24" x1="48.21" y1="10.32" x2="48.41" y2="14.01" xlink:href="#linear-gradient"/><linearGradient id="linear-gradient-25" x1="40.83" y1="10.7" x2="41.02" y2="14.39" xlink:href="#linear-gradient"/><linearGradient id="linear-gradient-26" x1="39.65" y1="10.76" x2="39.84" y2="14.45" xlink:href="#linear-gradient"/><linearGradient id="linear-gradient-27" x1="44.33" y1="10.52" x2="44.52" y2="14.21" xlink:href="#linear-gradient"/><linearGradient id="linear-gradient-28" x1="39.71" y1="10.75" x2="39.9" y2="14.45" xlink:href="#linear-gradient"/><linearGradient id="linear-gradient-29" x1="16.6" y1="10.33" x2="16.6" y2="13.7" xlink:href="#linear-gradient"/><linearGradient id="linear-gradient-30" x1="19.66" y1="10.33" x2="19.66" y2="13.7" xlink:href="#linear-gradient"/><linearGradient id="linear-gradient-31" x1="21.97" y1="10.33" x2="21.97" y2="13.7" xlink:href="#linear-gradient"/><mask id="mask" x="16.75" y="11.3" width="2.76" height="2.74" maskUnits="userSpaceOnUse"><g id="mask0"><path class="cls-1" d="M16.75,11.3h2.76V14H16.75Z"/></g></mask><linearGradient id="linear-gradient-32" x1="18.13" y1="10.33" x2="18.13" y2="13.7" xlink:href="#linear-gradient"/><mask id="mask-2" x="12.36" y="11.32" width="3.88" height="2.71" maskUnits="userSpaceOnUse"><g id="mask1"><path class="cls-1" d="M12.36,11.32h3.88V14H12.36Z"/></g></mask><linearGradient id="linear-gradient-33" x1="14.3" y1="10.33" x2="14.3" y2="13.7" xlink:href="#linear-gradient"/></defs><g id="Capa_2" data-name="Capa 2"><g id="Capa_1-2" data-name="Capa 1"><path class="cls-2" d="M5.33,3.07A.4.4,0,0,0,5,3.19l-1-.6L3.9,2.8l1,.59a.45.45,0,0,0,0,.11.43.43,0,1,0,.43-.43Zm.19.43a.19.19,0,0,1-.19.2.2.2,0,0,1-.19-.2.2.2,0,0,1,.19-.19A.19.19,0,0,1,5.52,3.5Z"/><path class="cls-3" d="M7.1,2.5V1.21L5,0,4,.57,3,0,.94,1.21V2.48L0,3V5.13l.92.52V6.89L3,8.14l1-.58,1,.6L7.1,6.93V5.64L8,5.11V3ZM6.67,3.93a.44.44,0,1,0,0,.87A.46.46,0,0,0,7,4.67L7.63,5l-.77.46V6.79L5,7.88l-.92-.53v-.9h.82a.43.43,0,0,0,.41.31.44.44,0,0,0,0-.87.43.43,0,0,0-.41.31H4.12V4l-1-.64L3,3.58l.91.57V4.9l-.82.46V4.55L2.11,4V3.2l.94-.55V1.54H2.82v1L2,3l-.81-.51V1.34L1.85,1V2h.24V.81L3,.28,4,.85,5,.28,6.85,1.35v.52H6.3A.43.43,0,0,0,5.45,2a.43.43,0,0,0,.43.43.44.44,0,0,0,.42-.31h.55v.53l.9.53V4.83l-.66-.38a.25.25,0,0,0,0-.08A.44.44,0,0,0,6.67,3.93Zm0,.63a.19.19,0,0,1-.19-.19.18.18,0,0,1,.19-.19.19.19,0,0,1,.19.19A.2.2,0,0,1,6.67,4.56ZM5.35,6.13a.19.19,0,0,1,.19.19.18.18,0,0,1-.19.19.19.19,0,0,1-.19-.19A.2.2,0,0,1,5.35,6.13Zm.53-3.95A.2.2,0,0,1,5.69,2a.19.19,0,0,1,.19-.19A.18.18,0,0,1,6.07,2,.19.19,0,0,1,5.88,2.18ZM3,6.93l-.12-.21L2,7.26l-.83-.51V5.65l.91-.53L2,4.91,1,5.44.24,5V4.15l.93-.52-.12-.21-.81.45V3.18l.82-.49.82.5V4L1,4.53l.13.2L2,4.2l.83.49V5.5l-1,.55L2,6.26l1.9-1.08V7.35L3,7.86,2.23,7.4Z"/><path class="cls-4" d="M58.45,3.49,58.15,3,56.92.85A.65.65,0,0,0,56.31.5H53.22a.69.69,0,0,0-.62.35L51.05,3.54a.64.64,0,0,0,0,.68c.21.36.41.72.62,1.07.31.54.62,1.08.94,1.62a.65.65,0,0,0,.61.35h3.17A.61.61,0,0,0,56.87,7a6.32,6.32,0,0,0,.33-.56L57.47,6c.15-.26.3-.52.46-.78s.2-.36.31-.54h0l.21-.36A.69.69,0,0,0,58.45,3.49Zm-5,1.41H53V3h.47Zm.77-.25h-.46V3.23h.46Zm.77.66h-.46V2.58H55Zm.78-.9h-.46V3.47h.46Zm.76.49h-.46V3h.46Z"/><path class="cls-5" d="M35.39,3.92H33.86V6.71h1.53Zm-12.21,0h1.53V1.13H23.18Z"/><path class="cls-6" d="M29.71,3.92v.61c.05,1.46.89,2.18,2.52,2.18h2.38V5.51H32.29a1.15,1.15,0,0,1-.41,0,.94.94,0,0,1-.35-.2,1.09,1.09,0,0,1-.26-.75c0-.16,0-.35,0-.6s0-.44,0-.58a1.13,1.13,0,0,1,.06-.41,1,1,0,0,1,.22-.35,1,1,0,0,1,.77-.24h2.3V1.13H32.29a2.77,2.77,0,0,0-1.87.56,2.07,2.07,0,0,0-.52.74,2.16,2.16,0,0,0-.18.88C29.72,3.46,29.71,3.67,29.71,3.92Zm-.87-.62a2.08,2.08,0,0,0-.71-1.61,2.77,2.77,0,0,0-1.86-.56H23.94V2.32h2.29a1.15,1.15,0,0,1,.78.24,1.13,1.13,0,0,1,.21.35,1,1,0,0,1,.06.41c0,.15,0,.35,0,.59a5.26,5.26,0,0,1,0,.6,1,1,0,0,1-.26.76,1.1,1.1,0,0,1-.35.2.9.9,0,0,1-.4,0H23.94v1.2h2.37c1.63,0,2.47-.72,2.52-2.18V3.92C28.84,3.67,28.85,3.46,28.84,3.3Z"/><path class="cls-7" d="M77.41,3.73H74.52V.84h2.89Z"/><path class="cls-8" d="M80.59,3.73H77.71V.84h2.88V3.73Z"/><path class="cls-7" d="M77.41,6.92H74.52V4h2.89Z"/><path class="cls-8" d="M80.59,6.92H77.71V4h2.88V6.92Z"/><path class="cls-9" d="M72,11.54V13c0,.09,0,.11-.11.11H70.18c-.05,0-.06,0-.06.06,0,.28,0,.55,0,.83a1,1,0,0,1-.71,1,.93.93,0,0,1-.29.05h-.88s-.08,0-.09-.06a.07.07,0,0,1,0-.08s0,0,.06,0h.84a.9.9,0,0,0,.65-.28A.83.83,0,0,0,70,14c0-.37,0-.74,0-1.11a.86.86,0,0,0-.72-.8H67.12a.87.87,0,0,0-.86.66.69.69,0,0,0,0,.2v1a.88.88,0,0,0,.87.87h.45a.07.07,0,0,1,.07,0l.53,1,0,0a.09.09,0,0,1,0,.11.08.08,0,0,1-.11,0l-.13-.23c-.13-.22-.25-.45-.37-.67a.07.07,0,0,0-.07,0H67a1,1,0,0,1-.84-.6,1,1,0,0,1-.09-.42c0-.34,0-.68,0-1a1,1,0,0,1,.94-1h2a1,1,0,0,1,.39.07s0,0,0,0V10.14c0-.1,0-.12.12-.12h2.27c.1,0,.12,0,.12.11Zm-.16,0V10.23s0-.05-.06-.05H69.71s0,0,0,.05V12a.11.11,0,0,0,0,.09,1,1,0,0,1,.42.74s0,.06.06.06h1.61s.06,0,.06-.06Z"/><path class="cls-10" d="M70.25,15.07a1.37,1.37,0,0,0,.67-.08,1,1,0,0,0,.59-.82.34.34,0,0,0,0-.1c0-.05,0-.09.08-.08a.09.09,0,0,1,.08.08,1.11,1.11,0,0,1-.16.59,1.19,1.19,0,0,1-.72.54,2.27,2.27,0,0,1-.45,0h-.08a.05.05,0,0,0,0,0l.18.18a.08.08,0,1,1-.11.11L70,15.21a.08.08,0,0,1,0-.12l.35-.35a.08.08,0,1,1,.11.11l-.18.18Z"/><path class="cls-11" d="M68.1,13.24a.2.2,0,0,1,.2.2.2.2,0,0,1-.4,0A.2.2,0,0,1,68.1,13.24Z"/><path class="cls-12" d="M69.1,13.44a.19.19,0,0,1-.19.2.2.2,0,1,1,0-.4A.19.19,0,0,1,69.1,13.44Z"/><path class="cls-13" d="M67.29,13.24a.2.2,0,1,1,0,.4.21.21,0,0,1-.2-.2A.2.2,0,0,1,67.29,13.24Z"/><path class="cls-14" d="M70.79,10.89H70a.09.09,0,0,1-.06-.08s0-.06.07-.07h1.52s.07,0,.07.07a.08.08,0,0,1-.06.08h-.77Z"/><path class="cls-15" d="M70.79,12.35H70s-.08,0-.08-.08a.09.09,0,0,1,.08-.08h1.51a.08.08,0,0,1,0,.16h-.76Z"/><path class="cls-16" d="M70.79,11.46h.76a.08.08,0,0,1,.07.08.08.08,0,0,1-.07.08H70.07s-.08,0-.1,0,0-.11.09-.11h.73Z"/><path class="cls-17" d="M45.42,12.75a.65.65,0,0,1,.19,1A.72.72,0,0,1,45,14H43.88c-.09,0-.07-.06-.07-.11V11.76c0-.07,0-.1.09-.1H45a.6.6,0,0,1,.63.45A.52.52,0,0,1,45.42,12.75Zm-.78.86a1.4,1.4,0,0,0,.41,0,.31.31,0,0,0,.21-.31A.28.28,0,0,0,45,13a2.57,2.57,0,0,0-.48,0c-.26,0-.26,0-.26.25s0,.27,0,.34S44.53,13.6,44.64,13.61Zm0-1a1.28,1.28,0,0,0,.39,0,.24.24,0,0,0,.19-.25.23.23,0,0,0-.2-.23,5,5,0,0,0-.67,0c-.05,0-.06,0-.05.07a.34.34,0,0,0,0,.1c0,.12,0,.27,0,.33S44.52,12.58,44.63,12.58Z"/><path class="cls-18" d="M35.78,11.67h.42c.08,0,.11,0,.14.11.14.5.28,1,.43,1.51l0,.12c.06,0,.05-.07.06-.11.15-.5.29-1,.44-1.51,0-.09.06-.13.15-.12h.3c.08,0,.09,0,.07.1-.17.47-.33.94-.49,1.41-.09.25-.18.51-.26.76A.11.11,0,0,1,37,14c-.12,0-.28,0-.37,0s-.09-.22-.13-.34c-.21-.63-.42-1.25-.64-1.88Z"/><path class="cls-19" d="M47,13.79a.7.7,0,0,1-.59.27.48.48,0,0,1-.49-.41.51.51,0,0,1,.33-.61,1.71,1.71,0,0,1,.45-.09l.17,0a.14.14,0,0,0,.12-.15.14.14,0,0,0-.12-.15.34.34,0,0,0-.46.17h0a.9.9,0,0,1-.43,0,.06.06,0,0,1,0-.06.55.55,0,0,1,.48-.51,1.18,1.18,0,0,1,.59,0,.48.48,0,0,1,.4.53v.94a.26.26,0,0,0,.08.23s0,0,0,.06h-.4S47,14,47,14,47,13.86,47,13.79Zm0-.63c-.14.06-.3.06-.44.11s-.19.12-.17.24.1.18.24.17S47,13.48,47,13.16Z"/><path class="cls-20" d="M43.5,13.49a.72.72,0,0,1-.7.57.82.82,0,0,1-.94-.86,1.47,1.47,0,0,1,0-.42.8.8,0,0,1,.87-.57.77.77,0,0,1,.72.65c.07.4.07.4-.32.4H42.4c-.09,0-.09,0-.08.1a.37.37,0,0,0,.28.32.36.36,0,0,0,.41-.14s.05,0,.08,0ZM42.68,13H43c.06,0,.08,0,.07-.08a.36.36,0,0,0-.37-.28.35.35,0,0,0-.34.29c0,.06,0,.07.06.07Z"/><path class="cls-21" d="M50.36,13.26h-.52c-.07,0-.09,0-.07.09a.39.39,0,0,0,.27.32.38.38,0,0,0,.42-.13.11.11,0,0,1,.1,0h.31c.07,0,.08,0,.06.09a.77.77,0,0,1-.69.48.81.81,0,0,1-.93-.87,1,1,0,0,1,.17-.67.83.83,0,0,1,.91-.28.74.74,0,0,1,.56.62c.08.4.07.4-.32.4ZM50.13,13h.29c.06,0,.09,0,.07-.09a.35.35,0,0,0-.37-.27.34.34,0,0,0-.33.28c0,.05,0,.08.06.08Z"/><path class="cls-22" d="M38.5,12.21a.85.85,0,0,1,.9.93.84.84,0,0,1-.88.92.85.85,0,0,1-.91-.93A.85.85,0,0,1,38.5,12.21Zm.41.93a.69.69,0,0,0,0-.25.38.38,0,0,0-.38-.3.37.37,0,0,0-.38.29.8.8,0,0,0,0,.55.36.36,0,0,0,.37.25.37.37,0,0,0,.36-.25A.59.59,0,0,0,38.91,13.14Z"/><path class="cls-23" d="M47.82,13.42h.11a.11.11,0,0,1,.14.1.18.18,0,0,0,.15.14.63.63,0,0,0,.36,0c.07,0,.13-.05.13-.13s-.05-.12-.12-.14l-.44-.11-.17,0a.43.43,0,0,1-.34-.32.58.58,0,0,1,.19-.54,1,1,0,0,1,1.11,0,.59.59,0,0,1,.18.38c0,.05,0,.07-.06.07h-.32c-.06,0-.07,0-.08-.06a.37.37,0,0,0-.52-.12c-.08.08-.06.18.06.22l.41.1a1.12,1.12,0,0,1,.26.08.44.44,0,0,1,.3.42.48.48,0,0,1-.26.48,1.12,1.12,0,0,1-1,0,.57.57,0,0,1-.29-.46c0-.05,0-.07.06-.07Z"/><path class="cls-24" d="M41.52,12.88a.22.22,0,0,0-.08,0,.15.15,0,0,1-.19-.12.25.25,0,0,0-.24-.17.29.29,0,0,0-.3.15.88.88,0,0,0,0,.79.3.3,0,0,0,.33.15.24.24,0,0,0,.23-.22c0-.07.05-.09.12-.09a1.22,1.22,0,0,0,.27,0c.08,0,.1,0,.09.1a.81.81,0,0,1-1.59-.22,1.33,1.33,0,0,1,.07-.56.8.8,0,0,1,.93-.47.6.6,0,0,1,.58.52c0,.13,0,.14-.11.14Z"/><path class="cls-25" d="M39.53,13.12c0-.25,0-.51,0-.77,0-.08,0-.1.1-.09s.27,0,.35,0,0,.22,0,.34v1.29c0,.09,0,.11-.11.11s-.27,0-.33,0,0-.22,0-.34Z"/><path class="cls-26" d="M44.57,14.23c.19.34.37.64.55.95,0,.05,0,.07,0,.07h-1c-.06,0-.06,0,0-.07C44.2,14.87,44.38,14.56,44.57,14.23Z"/><path class="cls-27" d="M39.76,12.07c-.23,0-.23,0-.23-.21s0-.19.21-.19.26,0,.27.26,0,.16-.15.14Z"/><path class="cls-28" d="M16.75,12.67a1.37,1.37,0,0,0,.83,1.26,6.09,6.09,0,0,1-2-1.56A1.65,1.65,0,0,0,17,11.84l.08-.09A1.39,1.39,0,0,0,16.75,12.67Z"/><path class="cls-29" d="M18.68,11.42l.16.07a1.38,1.38,0,0,1,.32,2.1l.07-.08A1.62,1.62,0,0,1,20.65,13,5.73,5.73,0,0,0,18.68,11.42Z"/><path class="cls-30" d="M20,12.37C21.53,13.94,22.2,14,22.55,14a1.36,1.36,0,1,0,0-2.71,1.29,1.29,0,0,0-1.07.52A1.76,1.76,0,0,1,20,12.37ZM22.57,12a.72.72,0,1,1-.71.71A.71.71,0,0,1,22.57,12Z"/><g class="cls-31"><path class="cls-32" d="M18.13,11.3a1.37,1.37,0,1,0,1.38,1.37A1.38,1.38,0,0,0,18.13,11.3Zm0,2.09a.72.72,0,1,1,.72-.72A.71.71,0,0,1,18.13,13.39Z"/></g><g class="cls-33"><path class="cls-34" d="M16.24,13c-1.52-1.58-2.18-1.66-2.52-1.66a1.35,1.35,0,0,0-1.36,1.35A1.36,1.36,0,0,0,13.72,14a1.33,1.33,0,0,0,1.07-.52A1.76,1.76,0,0,1,16.24,13Zm-2.55.41a.72.72,0,1,1,.71-.72A.71.71,0,0,1,13.69,13.39Z"/></g></g></g></svg>