<svg xmlns="http://www.w3.org/2000/svg" xmlns:xlink="http://www.w3.org/1999/xlink" viewBox="0 0 158.56 10.77"><defs><style>.cls-1{fill:url(#Degradado_sin_nombre_23);}.cls-2{fill:url(#Degradado_sin_nombre_23-2);}.cls-3{fill:url(#Degradado_sin_nombre_23-3);}.cls-4{fill:url(#Degradado_sin_nombre_23-4);}.cls-5{fill:url(#Degradado_sin_nombre_23-5);}.cls-6{fill:url(#Degradado_sin_nombre_23-6);}.cls-7{fill:url(#Degradado_sin_nombre_23-7);}.cls-8{fill:url(#Degradado_sin_nombre_23-8);}.cls-9{fill:url(#Degradado_sin_nombre_23-9);}.cls-10{fill:url(#Degradado_sin_nombre_23-10);}.cls-11{fill:url(#Degradado_sin_nombre_23-11);}.cls-12{fill:url(#Degradado_sin_nombre_23-12);}</style><linearGradient id="Degradado_sin_nombre_23" x1="7.04" y1="-0.08" x2="7.25" y2="11.56" gradientUnits="userSpaceOnUse"><stop offset="0" stop-color="#ebebeb"/><stop offset="1" stop-color="#868686"/></linearGradient><linearGradient id="Degradado_sin_nombre_23-2" x1="21.26" y1="-0.34" x2="21.47" y2="11.29" xlink:href="#Degradado_sin_nombre_23"/><linearGradient id="Degradado_sin_nombre_23-3" x1="34.69" y1="-0.59" x2="34.9" y2="11.04" xlink:href="#Degradado_sin_nombre_23"/><linearGradient id="Degradado_sin_nombre_23-4" x1="46.79" y1="-0.81" x2="47" y2="10.82" xlink:href="#Degradado_sin_nombre_23"/><linearGradient id="Degradado_sin_nombre_23-5" x1="57.84" y1="-1.02" x2="58.05" y2="10.62" xlink:href="#Degradado_sin_nombre_23"/><linearGradient id="Degradado_sin_nombre_23-6" x1="70.37" y1="-1.25" x2="70.58" y2="10.38" xlink:href="#Degradado_sin_nombre_23"/><linearGradient id="Degradado_sin_nombre_23-7" x1="87.86" y1="-1.57" x2="88.07" y2="10.06" xlink:href="#Degradado_sin_nombre_23"/><linearGradient id="Degradado_sin_nombre_23-8" x1="102.09" y1="-1.84" x2="102.3" y2="9.8" xlink:href="#Degradado_sin_nombre_23"/><linearGradient id="Degradado_sin_nombre_23-9" x1="115.87" y1="-2.09" x2="116.08" y2="9.54" xlink:href="#Degradado_sin_nombre_23"/><linearGradient id="Degradado_sin_nombre_23-10" x1="127.61" y1="-2.31" x2="127.83" y2="9.32" xlink:href="#Degradado_sin_nombre_23"/><linearGradient id="Degradado_sin_nombre_23-11" x1="139.99" y1="-2.54" x2="140.21" y2="9.09" xlink:href="#Degradado_sin_nombre_23"/><linearGradient id="Degradado_sin_nombre_23-12" x1="152.52" y1="-2.77" x2="152.74" y2="8.86" xlink:href="#Degradado_sin_nombre_23"/></defs><g id="Capa_2" data-name="Capa 2"><g id="Capa_1-2" data-name="Capa 1"><path class="cls-1" d="M11.87,10.77H0L2.15,0H12.52a1.72,1.72,0,0,1,.78.18,1.63,1.63,0,0,1,.6.47,1.86,1.86,0,0,1,.34.69,1.79,1.79,0,0,1,0,.8l-.33,1.74a1.53,1.53,0,0,1-.5.82,1.4,1.4,0,0,1-.92.33h.23a1.29,1.29,0,0,1,.62.15,1.41,1.41,0,0,1,.49.38,1.37,1.37,0,0,1,.28.55,1.22,1.22,0,0,1,0,.63l-.51,2.58a1.73,1.73,0,0,1-.62,1A1.83,1.83,0,0,1,11.87,10.77ZM10.38,4a.32.32,0,0,0,.36-.29l.15-.72a.37.37,0,0,0-.08-.3.32.32,0,0,0-.27-.13H3.15L5,3.05,4.77,4ZM3.91,8.26h6.43A.31.31,0,0,0,10.67,8L11,6.54a.35.35,0,0,0-.08-.3.33.33,0,0,0-.28-.13H4.34Z"/><path class="cls-2" d="M26.06,10.77H22.83l.61-3H18.78l-.62,3.05H14.94L16.8,1.45a1.73,1.73,0,0,1,.62-1A1.74,1.74,0,0,1,18.56,0H26a1.77,1.77,0,0,1,.8.18,1.63,1.63,0,0,1,.6.47,1.74,1.74,0,0,1,.35.69,1.66,1.66,0,0,1,0,.8ZM17.92,2.51l1.78.54L19.27,5.2H24l.44-2.26a.36.36,0,0,0-.07-.3A.34.34,0,0,0,24,2.51Z"/><path class="cls-3" d="M32.78,2.51H29L29.49,0h11L40,2.51H34.47l1.8.54-1.55,7.72H31.13Z"/><path class="cls-4" d="M44.88,2.51h-3.8L41.59,0h11l-.5,2.51h-5.5l1.8.54-1.55,7.72H43.24Z"/><path class="cls-5" d="M63.42,8.26l-.51,2.51H52.65L54.8,0h3.59L56.85,7.72l-1.91.54Z"/><path class="cls-6" d="M64.6,8.61,66.32,0H76.38l-.51,2.51H67.15l1.8.54-.23,1.16h5.76L74,6.55H68.25L68,7.83a.33.33,0,0,0,.08.3.32.32,0,0,0,.27.13h6.37l-.49,2.51H66.37a1.73,1.73,0,0,1-.79-.18,1.77,1.77,0,0,1-.6-.48,1.88,1.88,0,0,1-.35-.69A1.84,1.84,0,0,1,64.6,8.61Z"/><path class="cls-7" d="M84.07,10.77H80.84L83,0H93.36a1.8,1.8,0,0,1,.8.18,1.63,1.63,0,0,1,.6.47,2,2,0,0,1,.34.69,1.79,1.79,0,0,1,0,.8L94.3,6.28a1.75,1.75,0,0,1-1.75,1.44h-.69l1.37,3.05H90l-1.36-3H84.69ZM85.18,5.2H91a.34.34,0,0,0,.36-.28l.38-2a.36.36,0,0,0-.07-.3.3.3,0,0,0-.27-.13H83.83l1.78.54Z"/><path class="cls-8" d="M107.18,9.32a1.74,1.74,0,0,1-.63,1,1.8,1.8,0,0,1-1.14.4H97.59a1.77,1.77,0,0,1-1.39-.66,1.86,1.86,0,0,1-.34-.69,1.7,1.7,0,0,1,0-.81l1.45-7.16a1.73,1.73,0,0,1,.62-1A1.7,1.7,0,0,1,99,0h7.83a1.72,1.72,0,0,1,.78.18,1.76,1.76,0,0,1,.61.47,1.88,1.88,0,0,1,.35.69,1.66,1.66,0,0,1,0,.8Zm-7-6.27-1,4.78a.37.37,0,0,0,.08.3.33.33,0,0,0,.28.13h6.47l-1.78-.54,1-4.78a.36.36,0,0,0-.07-.3.35.35,0,0,0-.28-.13H98.38Z"/><path class="cls-9" d="M115,7l-1.8-.54L109.81,0h3.41l2,4,3-3.95H122l-5.29,6.46-.8,4.31H112.4L113.11,7Z"/><path class="cls-10" d="M132.45,10.77h-3.23l.61-3h-4.66l-.61,3.05h-3.23l1.86-9.32a1.73,1.73,0,0,1,.62-1A1.77,1.77,0,0,1,125,0h7.46a1.84,1.84,0,0,1,1.4.65,1.72,1.72,0,0,1,.34.69,1.66,1.66,0,0,1,0,.8Zm-8.14-8.26,1.78.54-.43,2.15h4.68l.45-2.26a.37.37,0,0,0-.08-.3.34.34,0,0,0-.28-.13Z"/><path class="cls-11" d="M145.6,8.26l-.51,2.51H134.83L137,0h3.59L139,7.72l-1.91.54Z"/><path class="cls-12" d="M146.78,8.61,148.5,0h10.06l-.5,2.51h-8.72l1.79.54-.23,1.16h5.76l-.46,2.34h-5.77l-.25,1.28a.37.37,0,0,0,.08.3.33.33,0,0,0,.28.13h6.36l-.49,2.51h-7.86a1.73,1.73,0,0,1-.79-.18,1.77,1.77,0,0,1-.6-.48,1.88,1.88,0,0,1-.35-.69A1.84,1.84,0,0,1,146.78,8.61Z"/></g></g></svg>