<svg xmlns="http://www.w3.org/2000/svg" viewBox="0 0 138.22 36.8"><defs><style>.cls-1{fill:#fff;}</style></defs><g id="Capa_2" data-name="Capa 2"><g id="Capa_1-2" data-name="Capa 1"><g id="g3876"><g id="g3882"><path id="path3884" class="cls-1" d="M17.49,36.35q-.69.15-1.8.3a14.73,14.73,0,0,1-1.91.15A12.85,12.85,0,0,1,9,36a12.32,12.32,0,0,1-3.68-2.25,27,27,0,0,1-2.45-2.33,12.45,12.45,0,0,1-1.48-2.1A9.77,9.77,0,0,1,.35,26.57,16.06,16.06,0,0,1,0,23a20.43,20.43,0,0,1,.64-5.47A14.26,14.26,0,0,1,3.1,12.85,13.79,13.79,0,0,1,8,8.89a14.08,14.08,0,0,1,6.51-1.56,13.85,13.85,0,0,1,10.18,4.18,13.88,13.88,0,0,1,4.18,10.18v14H22.73V21.44a7.5,7.5,0,0,0-2.47-5.59,8.09,8.09,0,0,0-5.82-2.38A8,8,0,0,0,8.51,16a8.27,8.27,0,0,0-2.42,6A8.37,8.37,0,0,0,8.56,28a8.17,8.17,0,0,0,6.07,2.53,7.94,7.94,0,0,0,6.22-2.88v7.43a14.52,14.52,0,0,1-1.78.77c-.53.18-1.05.34-1.58.47"/></g><g id="g3886"><path id="path3888" class="cls-1" d="M42.44,35.71q-5.14,0-8.1-2.75A9.72,9.72,0,0,1,31.4,25.5V0h6.09V7.87H41.6v5.75H37.49V25.24a4.31,4.31,0,0,0,1.44,3.2,4.72,4.72,0,0,0,3.36,1.37h1v5.9Z"/></g><g id="g3890"><path id="path3892" class="cls-1" d="M51.75,24.42a.85.85,0,0,1-.47-.22,2.49,2.49,0,0,1-.52-.66,4.8,4.8,0,0,1-.3-1.65,3.37,3.37,0,0,1,.35-1.55c.23-.45.48-.68.74-.68H65.72q-1.93-6.28-8-6.29a8.47,8.47,0,0,0-8.51,8.52,8.3,8.3,0,0,0,8.42,8.42,7.58,7.58,0,0,0,2.82-.49A9.24,9.24,0,0,0,62.1,29a13.82,13.82,0,0,0,1.54-1.39L67.7,32a13.88,13.88,0,0,1-4.51,3.29,13.52,13.52,0,0,1-5.45,1,14.39,14.39,0,0,1-10.49-4.17A13.79,13.79,0,0,1,43,21.91a14.28,14.28,0,0,1,4.13-10.29,13.42,13.42,0,0,1,10-4.29A14.39,14.39,0,0,1,67.6,11.74,14,14,0,0,1,72.06,22l-.15,2.38Z"/></g><g id="g3894"><path id="path3896" class="cls-1" d="M79.14,7.87l5,8.52,5-8.52h7.08L88,21.34l8.13,14.37H89l-5-9.41-5,9.41H72.06l8.12-14.37L72,7.87Z"/></g><g id="g3898"><path id="path3900" class="cls-1" d="M108,35.71q-5.15,0-8.1-2.75A9.72,9.72,0,0,1,97,25.5V0h6.09V7.87h4.11v5.75h-4.11V25.24a4.34,4.34,0,0,0,1.43,3.2,4.74,4.74,0,0,0,3.37,1.37h1v5.9Z"/></g><g id="g3902"><path id="path3904" class="cls-1" d="M123.61,30.06a8,8,0,0,0,8.32-8.29,8.32,8.32,0,0,0-2.35-6.1,8,8,0,0,0-6-2.4,7.85,7.85,0,0,0-5.92,2.4,8.45,8.45,0,0,0-2.3,6.1,8.07,8.07,0,0,0,2.33,5.92,7.9,7.9,0,0,0,5.89,2.37m-14.56-8.22a14.59,14.59,0,1,1,29.17,0q0,6.59-3.94,10.43T123.61,36.1q-6.63,0-10.6-3.86t-4-10.4"/></g></g></g></g></svg>